<svg xmlns="http://www.w3.org/2000/svg" xmlns:xlink="http://www.w3.org/1999/xlink" width="629.131" height="503.266" viewBox="0 0 629.131 503.266"><title>Become A Vendor</title><defs><filter id="a" x="371" y="14" width="81" height="83" filterUnits="userSpaceOnUse"><feOffset dy="3" input="SourceAlpha"/><feGaussianBlur stdDeviation="3" result="b"/><feFlood flood-opacity="0.161"/><feComposite operator="in" in2="b"/><feComposite in="SourceGraphic"/></filter></defs><g transform="translate(0 0)"><path d="M857.038,701.588l-.038-.352a40.841,40.841,0,0,1,11.2-32.46,39.624,39.624,0,0,1,7.786-6.179l.271-.165.089.3c1.064,3.637,2.479,7.306,3.127,8.932l1.432-11.647.309-.134a7.746,7.746,0,0,1,8.539,1.56,7.878,7.878,0,0,1,1.937,8.613c-.511,1.342-1,2.736-1.481,4.085-1.638,4.635-3.331,9.427-6.194,13.351a24.687,24.687,0,0,1-18.794,9.918Z" transform="translate(-285.434 -198.367)" fill="#f2f2f2"/><path d="M562.759,697.415a24.686,24.686,0,0,1-18.794-9.918c-2.863-3.923-4.557-8.716-6.194-13.351-.477-1.349-.97-2.743-1.481-4.085a7.878,7.878,0,0,1,1.937-8.613,7.745,7.745,0,0,1,8.539-1.56l.309.134,1.432,11.647c.648-1.626,2.063-5.3,3.127-8.932l.089-.3.271.165a39.624,39.624,0,0,1,7.786,6.179,40.841,40.841,0,0,1,11.2,32.46l-.038.352Z" transform="translate(-285.434 -198.367)" fill="#f2f2f2"/><path d="M469.533,458.767s-3.8-30.746-12.372-40.115l-20.169,7.812L452.917,467.1l32.224,40.648a8.594,8.594,0,1,0,11.851-8.852Z" transform="translate(-285.434 -198.367)" fill="#a0616a"/><path d="M366.737,475.9s13.8-27.739,11.819-40.281L357.426,431l-9.144,42.676,4.442,51.681a8.594,8.594,0,1,0,14.768-.842Z" transform="translate(-285.434 -198.367)" fill="#a0616a"/><path d="M105.705,490.1h10l4.755-38.557H105.7Z" fill="#9e616a"/><path d="M390.787,698.9h30.739v-.389a11.965,11.965,0,0,0-11.964-11.964h0l-5.615-4.26-10.476,4.26h-2.683Z" transform="translate(-285.434 -198.367)" fill="#2f2e41"/><path d="M133.091,484.444l9.75,2.2,13.138-36.56-14.391-3.251Z" fill="#9e616a"/><path d="M415.884,692.905l29.983,6.775.086-.379a11.965,11.965,0,0,0-9.033-14.307h0l-4.538-5.393-11.158,1.846-2.617-.591Z" transform="translate(-285.434 -198.367)" fill="#2f2e41"/><path d="M463.553,583.4c-5.936,18.911-21.12,69.107-21.12,69.107s-12.923,3.226-17,0,1-14,1-14c-2.688-12.07,3.36-24.27,3.753-35.972-.815-4.911,3.507-9.127,3.9-13.81-2.857-2.174-16.758-36.3-19.593-45.832,1.457,29.053-2.062,72.614-6.062,100.614-1.893,13.254-4.533,9.381-18,10-6-1.784-5-15-5-15v-11c-2.919-12.318-2.957-14.979-2-21-.439-6.391-5.94-72.474-10.822-94.84-3.253-17.817,36.618-21.738,48.085-25.987,19.134-9.218,15.9,3.887,25.981,15.96C456.393,522.449,462.116,559.612,463.553,583.4Z" transform="translate(-285.434 -198.367)" fill="#2f2e41"/><path d="M139.732,191.828,130.058,178h-17l-15,14L96.8,316.387l67.88,7.61Z" fill="#e89314"/><path d="M418.44,379.617l26.935,12.326,5.117,79.424s4.319,10.2,4.663,11.206c.361,1.054,1.08,6.256.768,7.121a26.587,26.587,0,0,0-1.431,8.673c.233,2.264,2.651,6.3,3.284,8.491.436,1.507-2.284,6.509-2.284,6.509h0a13.768,13.768,0,0,1,1.731,11.54l-.731,2.46-14-2-6.036-29.677-.637-3.133-.659-3.241-.515-2.533-.458-2.252-.384-1.89Z" transform="translate(-285.434 -198.367)" fill="#3f3d56"/><path d="M428.375,395.943l17-4c8.2,9.539,14.867,28.35,20.122,45.489.374,1.22.081,2.9,1.1,3.63,1.854,1.318,2.959,2.908,1.619,5.46-.512.975.615,2.1.913,3.12.251.861-.09,2.294.742,2.542,2.379.708,2.493,2.741,1.562,5.319l-20,10-.57-.921-2.246-3.627-9.666-15.61Z" transform="translate(-285.434 -198.367)" fill="#3f3d56"/><path d="M394.492,380.367l-15.117,13.576s-3.537,57.477-5.883,79.424c-.1.933,1.2,3.162,1.1,4.1l-.586,5.48-.441,4.124c-.158,1.483-2.076,16.3-2.076,16.3l-3,2h0a25.783,25.783,0,0,0,2.022,16.973l1.978,4.027,21.883-2.424Z" transform="translate(-285.434 -198.367)" fill="#3f3d56"/><path d="M385.478,402.459l-6.1-8.516-19,12c-4.193,11.6-8.791,31.836-11.331,49.435-.057.4.211,1.07-.169,1.191-1.368.434-1.782,1.121-.313,2.31a2.041,2.041,0,0,1-.363,2.906c-1.611.766-2.849,1.522-.257,2.262,1.823.521-.375,3.709-.509,5.457l22,5c2.01-.579,2.392-1.756,1.321-3.467,1.657-.5,2.284-1.389,1.125-2.953l.544-1.428c1.848-.285,1.822-1.051.791-2.076l.75-1.969,3.47-9.108Z" transform="translate(-285.434 -198.367)" fill="#3f3d56"/><circle cx="22.358" cy="22.358" r="22.358" transform="translate(96.799 129.385)" fill="#a0616a"/><path d="M381.951,364.517s4.924,1.35,7.79,2.1c-.148-2.132-1.072-4.129-1.541-6.215s-.367-4.539,1.183-6.012,4.779-.9,5.029,1.22l3.943-8.429c3.755,7.729,11.432,1.143,19.8,3.1,4.27,1.006,9.622.574,11.878-3.189a13.938,13.938,0,0,1-3.154-3.784,12.734,12.734,0,0,0,4.01.508,8.406,8.406,0,0,0-3.717-6.785c-1.2-.787,1.776-3.588.725-4.574-2.155-2.012-3.6-.646-4.874-3.3a9.8,9.8,0,0,0-8.851-5.411c-3.659.086-10.215.05-11.635,3.421-4.524-2.962-10.822-2.125-15.245.982-3.676,2.572-7.859,10.348-8.782,14.737S379.624,360.691,381.951,364.517Z" transform="translate(-285.434 -198.367)" fill="#2f2e41"/><path d="M483.821,463.262a2.766,2.766,0,0,0-2.757,2.992c4.223,10.915,3.651,23.55,3.111,37.847a2.782,2.782,0,0,0,2.757,2.539h17.846a2.782,2.782,0,0,0,2.757-2.539c-1.45-13.889-.667-26.635,3.111-37.847a2.766,2.766,0,0,0-2.757-2.992Z" transform="translate(-285.434 -198.367)" fill="#e89314"/><path d="M512.074,468.306l-1.331-6.324a2.561,2.561,0,0,0-2.507-2.034h-8.311a.918.918,0,0,0-.156-.3l-.924-1.154a.929.929,0,0,0-.725-.349h-5.132a.929.929,0,0,0-.725.349l-.923,1.154a.916.916,0,0,0-.156.3h-7.709a2.561,2.561,0,0,0-2.507,2.034l-1.331,6.324a2.561,2.561,0,0,0,2.506,3.089c8.5,4.362,17.63,4.469,27.425,0a2.561,2.561,0,0,0,2.507-3.089Z" transform="translate(-285.434 -198.367)" fill="#3f3d56"/><path d="M738.433,471.5c-.436-1.666-1.985-6.754-3.954-4.506-.292.333-.523-.739-.795-1.133-.469-.682-.754-3.593-1.251-4.36-1.011-1.561-2.266-1.1-3.294-2.911-2.94-5.179-5.683-11.092-6.706-16.089-3.13-15.3,1.181-36.218,1.181-36.218l-1.395-29.8-10.183-.342v-.67a5.071,5.071,0,0,0-5.071-5.071H687.572a5.067,5.067,0,0,0-5.055,4.749l-7.985-.268L660.7,418.822s6.454,16.585,8.731,32.682a61.175,61.175,0,0,1,.446,13.109,52.707,52.707,0,0,1-2.584,13.026s58.666,12.286,70.138.865C737.433,478.5,739.217,474.5,738.433,471.5Z" transform="translate(-285.434 -198.367)" fill="#3f3d56"/><path d="M813.552,474.707h-13.86v-223.1q-1.44-1.065-2.91-2.1c-.2-.13-.39-.27-.58-.4a168.612,168.612,0,0,0-18.45-11.22,99.492,99.492,0,0,0-9.36-10.82,98.006,98.006,0,0,0-147.93,10.81q-6.48,3.39-12.62,7.32c-.39.25-.78.5-1.16.75-.01.01-.02.01-.03.02a5.082,5.082,0,0,0-2.3,4.27v224.47h-19.7c-8.7,0-16.21,7.11-16.17,15.81a15.673,15.673,0,0,0,1.13,5.79,13.984,13.984,0,0,0,1.03,2.09,15.993,15.993,0,0,0,1.77,2.46,15.7,15.7,0,0,0,11.81,5.35h229.76a15.761,15.761,0,0,0,15.74-15.69C829.762,481.817,822.252,474.707,813.552,474.707Zm-71.49,0h-80.67l-11.12-153.65h102.91Z" transform="translate(-285.434 -198.367)" fill="#e6e6e6"/><path d="M469.635,219.27l34.475-30.715,10.17,5.039-41.347,43.367Z" fill="#ffb6b6"/><path d="M716.525,379.538l5.695-3.051s14.03-1.2,19.756,15.285l15.185,22.936,24.613-21.332,10.666,7.384-31.02,37.022-12.9,1.648-27.9-36.1Z" transform="translate(-285.434 -198.367)" fill="#3f3d56"/><path d="M725.807,353.175c-3.113,21.1-18.6,23.32-29.946,12.307-11.865-11.522-29.946,2.193-29.946-12.307s6.549-40.2,29.946-40.2C720.063,312.973,727.923,338.83,725.807,353.175Z" transform="translate(-285.434 -198.367)" fill="#2f2e41"/><circle cx="20.151" cy="20.151" r="20.151" transform="translate(390.175 126.788)" fill="#ffb6b6"/><path d="M672.478,343.329h7.97l3.516-9.845.7,9.845h3.809l2.051-5.743.41,5.743c5.812,5.253,16.573,3.331,28.305,0h0A21.332,21.332,0,0,0,697.912,322h-4.1a21.332,21.332,0,0,0-21.332,21.332Z" transform="translate(-285.434 -198.367)" fill="#2f2e41"/><path d="M635.4,487.8a8.2,8.2,0,0,0,5.97-13.785L652.592,444.4l2.3-9.9h0A9.915,9.915,0,0,0,640.2,439.78L628.515,475.1a8.2,8.2,0,0,0,6.889,12.7Z" transform="translate(-285.434 -198.367)" fill="#ffb6b6"/><path d="M771.22,357.488a2.766,2.766,0,0,0-2.757,2.992c3.1,13.388,4.42,26.108,3.111,37.847a2.782,2.782,0,0,0,2.757,2.539h17.846a2.782,2.782,0,0,0,2.757-2.539,119.152,119.152,0,0,1,3.111-37.847,2.766,2.766,0,0,0-2.757-2.992Z" transform="translate(-285.434 -198.367)" fill="#e89314"/><path d="M799.473,362.533l-1.331-6.324a2.562,2.562,0,0,0-2.507-2.034h-8.311a.917.917,0,0,0-.156-.3l-.924-1.154a.929.929,0,0,0-.725-.349h-5.132a.929.929,0,0,0-.725.349l-.924,1.154a.919.919,0,0,0-.156.3h-7.709a2.561,2.561,0,0,0-2.507,2.034l-1.331,6.324a2.562,2.562,0,0,0,2.506,3.089c9.193,3.832,18.345,4.589,27.425,0a2.561,2.561,0,0,0,2.506-3.089Z" transform="translate(-285.434 -198.367)" fill="#3f3d56"/><path d="M698.492,280.367a33,33,0,1,1,33-33A33,33,0,0,1,698.492,280.367Zm0-64a31,31,0,1,0,31,31,31,31,0,0,0-31-31Z" transform="translate(-285.434 -198.367)" fill="#f2f2f2"/><path d="M514.058,502h-197l.22-22.888.02-1.99L319.058,298h194l.25,51.746.01,1.991Z" fill="#e6e6e6"/><path d="M913.375,701.326l-626.75.307a1.191,1.191,0,1,1,0-2.381l626.75-.307a1.191,1.191,0,0,1,0,2.381Z" transform="translate(-285.434 -198.367)" fill="#cacaca"/><path d="M592.821,434.262a2.766,2.766,0,0,0-2.757,2.992c2.825,13.314,4.068,26.01,3.111,37.847a2.782,2.782,0,0,0,2.757,2.539h17.846a2.782,2.782,0,0,0,2.757-2.539c-1.442-11.94.083-24.689,3.111-37.847a2.766,2.766,0,0,0-2.757-2.992Z" transform="translate(-285.434 -198.367)" fill="#e89314"/><path d="M621.074,439.306l-1.331-6.324a2.561,2.561,0,0,0-2.507-2.034h-8.311a.918.918,0,0,0-.156-.3l-.923-1.154a.929.929,0,0,0-.725-.349h-5.132a.929.929,0,0,0-.725.349l-.923,1.154a.917.917,0,0,0-.156.3h-7.709a2.561,2.561,0,0,0-2.507,2.034l-1.331,6.324a2.561,2.561,0,0,0,2.506,3.089,46.449,46.449,0,0,0,27.425,0,2.561,2.561,0,0,0,2.506-3.089Z" transform="translate(-285.434 -198.367)" fill="#3f3d56"/><rect width="91.701" height="2" transform="translate(320.058 381)" fill="#f2f2f2"/><rect width="91.701" height="2" transform="translate(421.058 307)" fill="#f2f2f2"/><rect width="91.701" height="2" transform="translate(370.058 445)" fill="#f2f2f2"/><path d="M513.318,352h-43.26v-2h43.25Z" fill="#f2f2f2"/><path d="M329.318,293h-43.26v-2h43.25Z" fill="#f2f2f2"/><path d="M363.318,96h-43.26V94h43.25Z" fill="#f2f2f2"/><path d="M508.318,55h-43.26V53h43.25Z" fill="#f2f2f2"/><path d="M464.318,96h-43.26V94h43.25Z" fill="#f2f2f2"/><g transform="matrix(1, 0, 0, 1, 0, 0)" filter="url(#a)"><text transform="translate(383 23)" fill="#9d9d9d" stroke="#9d9d9d" stroke-linecap="round" stroke-width="3" font-size="50" font-family="Vivaldii, Vivaldi" opacity="0.85"><tspan x="0" y="45">T</tspan></text></g><path d="M344.758,478v2h-27.48l.02-2Z" fill="#f2f2f2"/><circle cx="8.204" cy="8.204" r="8.204" transform="translate(502.443 184.703)" fill="#ffb6b6"/><path d="M677.964,380.359l-3.432-5.474s-11.167-2.761-15.764,4.639S629.433,466.5,629.433,466.5l14,5,27-61.757Z" transform="translate(-285.434 -198.367)" fill="#3f3d56"/></g></svg>